<svg xmlns="http://www.w3.org/2000/svg" viewBox="0 0 14.99 9.37"><defs><style>.cls-1{fill:#333;}.cls-2{fill:none;stroke:#333;stroke-miterlimit:10;}</style></defs><title>曲线</title><g id="图层_2" data-name="图层 2"><g id="图层_1-2" data-name="图层 1"><path class="cls-1" d="M.06,8.27h0a1.51,1.51,0,0,1,1-1.87h0a1.49,1.49,0,0,1,1.85,1h0a1.51,1.51,0,0,1-1,1.87h0A1.5,1.5,0,0,1,.06,8.27Z"/><path class="cls-1" d="M6,1.93H6A1.53,1.53,0,0,1,7,.06H7a1.5,1.5,0,0,1,1.85,1h0A1.53,1.53,0,0,1,7.84,3h0A1.51,1.51,0,0,1,6,1.93Z"/><path class="cls-1" d="M12.06,8.27h0a1.51,1.51,0,0,1,1-1.87h0a1.49,1.49,0,0,1,1.85,1h0a1.51,1.51,0,0,1-1,1.87h0A1.5,1.5,0,0,1,12.06,8.27Z"/><path class="cls-2" d="M1.43,8.51V8.35c0-3.77,2.69-6.84,6-6.84s6,3.07,6,6.84"/></g></g></svg>