<svg width="47" height="24" viewBox="0 0 47 24" fill="none" xmlns="http://www.w3.org/2000/svg">
<path d="M20.7823 6.01013H18.124V23.9954H20.7823V6.01013Z" fill="white"/>
<path d="M19.4524 0C18.3712 0 17.4922 0.87906 17.4922 1.96017C17.4922 3.04128 18.3712 3.92033 19.4524 3.92033C20.5335 3.92033 21.4125 3.04128 21.4125 1.96017C21.4125 0.87906 20.5335 0 19.4524 0Z" fill="white"/>
<path d="M27.5852 13.676H22.8175L29.6027 23.9955H32.7842L27.745 16.3328C30.5179 16.2483 32.7465 13.9655 32.7465 11.173C32.7465 8.32622 30.4305 6.01172 27.5852 6.01172H22.8145V8.67001H27.5852C28.9649 8.67001 30.0882 9.79333 30.0882 11.173C30.0882 12.5526 28.9664 13.676 27.5852 13.676Z" fill="white"/>
<path d="M6.54545 6.01013L0 23.9954H2.82867L9.37412 6.01013H6.54545Z" fill="#F6AB00"/>
<path d="M15.9291 23.9955L10.1526 8.12573L8.73828 12.0129L13.0989 23.9955H15.9291Z" fill="white"/>
<path d="M39.9088 16.3342H40.8467C42.2263 16.3342 43.3496 17.4576 43.3496 18.8372C43.3496 20.2169 42.2263 21.3402 40.8467 21.3402H35.9161V22.4334H40.8708C42.8521 22.4334 44.4639 20.8215 44.4639 18.8402C44.4639 16.8589 42.8521 15.2471 40.8708 15.2471H39.9254C37.6787 15.2471 35.8497 13.4181 35.8497 11.1714C35.8497 8.92479 37.6787 7.09581 39.9254 7.09581H44.8409V6.00867H39.9103C37.0635 6.00867 34.749 8.32468 34.749 11.1699C34.749 14.0152 37.062 16.3342 39.9088 16.3342Z" fill="#F6AB00"/>
<path d="M40.8471 13.6759H39.9093C38.5296 13.6759 37.4063 12.5526 37.4063 11.1729C37.4063 9.79327 38.5296 8.66995 39.9093 8.66995H44.8398V7.5813H39.9243C37.9431 7.5813 36.3312 9.19316 36.3312 11.1744C36.3312 13.1557 37.9431 14.7676 39.9243 14.7676H40.8697C43.1164 14.7676 44.9454 16.5966 44.9454 18.8432C44.9454 21.0899 43.1164 22.9189 40.8697 22.9189H35.915V24H40.8456C43.6924 24 46.0069 21.684 46.0069 18.8387C46.0069 15.9934 43.6924 13.6759 40.8471 13.6759Z" fill="#F6AB00"/>
</svg>
