<svg width="22" height="12" viewBox="0 0 22 12" fill="none" xmlns="http://www.w3.org/2000/svg">
<path d="M20.9999 4.00004V1.99996C20.9999 0.899972 20.0999 0 19 0H1.99996C0.899972 0 0 0.899972 0 1.99996V9.99992C0 11.0999 0.899972 12 1.99996 12H19C20.0999 12 20.9999 11.0999 20.9999 9.99992V7.99996C21.5499 7.99996 21.9999 7.55 21.9999 6.99997V5.00003C21.9999 4.45003 21.5499 4.00004 20.9999 4.00004ZM20 5.00003V6.99997V9.99992C20 10.5499 19.55 10.9999 19 10.9999H1.99996C1.44995 10.9999 0.999967 10.5499 0.999967 9.99992L0.999966 1.99996C0.999966 1.44995 1.44995 0.999966 1.99996 0.999966H19C19.55 0.999966 20 1.44995 20 1.99996V5.00003Z" fill="#61C361"/>
</svg>
