<svg xmlns="http://www.w3.org/2000/svg" viewBox="0 0 13 13.82"><defs><style>.cls-1{fill:none;stroke:#333;stroke-linecap:round;stroke-miterlimit:10;}.cls-2{fill:#333;}</style></defs><title>条件</title><g id="图层_2" data-name="图层 2"><g id="图层_1-2" data-name="图层 1"><path class="cls-1" d="M6.15,13.21a5,5,0,0,1-4.21-1.88,6.51,6.51,0,0,1,.24-8.45A5.12,5.12,0,0,1,4.68,1.4"/><polygon class="cls-2" points="4.32 2.99 6.84 1.37 4.18 0 4.32 2.99"/><path class="cls-1" d="M8.21,1.42A5.16,5.16,0,0,1,11.06,3.2a6.53,6.53,0,0,1-.24,8.46,5.35,5.35,0,0,1-1.24,1"/><polygon class="cls-2" points="9.47 10.99 7.51 13.26 10.45 13.82 9.47 10.99"/></g></g></svg>