<svg xmlns="http://www.w3.org/2000/svg" viewBox="0 0 10 13"><defs><style>.cls-1{fill:none;stroke:#503183;stroke-linecap:round;stroke-linejoin:round;}</style></defs><title>手动定位-选中</title><g id="图层_2" data-name="图层 2"><g id="图层_1-2" data-name="图层 1"><path class="cls-1" d="M3,8.05c0-.28-.94-1-1.15-1C.59,6.48.5,7.9.77,8.6c.51,1.29,1.54,3.64,3.33,3.81a16,16,0,0,0,2.19.08,4,4,0,0,0,1.94-.34A2.25,2.25,0,0,0,9,10.88,12.62,12.62,0,0,0,9.5,7.55c0-.22,0-1-.34-1.08s-.76-.15-1,.09a.68.68,0,0,0,0,.35c0,.36,0,.73,0,1.09,0-.44,0-.88,0-1.33,0-.3.05-.59-.33-.73-.22-.08-1.4-.24-1.4.16,0,.6,0,1.21,0,1.81,0-.62,0-1.25,0-1.88,0-.38.11-1-.42-1.1a9.78,9.78,0,0,0-1.32,0v-1c0-.36,0-.52-.35-.6a1.59,1.59,0,0,0-1.23.14c-.23.2-.15.53-.15.79Z"/><path class="cls-1" d="M.5,3.45A3.22,3.22,0,0,1,3.94.5,3.29,3.29,0,0,1,7.38,3.19"/></g></g></svg>